<?xml version="1.0" encoding="UTF-8" standalone="no"?>
<!DOCTYPE svg PUBLIC "-//W3C//DTD SVG 1.1//EN"
 "http://www.w3.org/Graphics/SVG/1.1/DTD/svg11.dtd">
<!-- Generated by graphviz version 2.40.1 (20161225.0304)
 -->
<!-- Title: dependencies Pages: 1 -->
<svg width="1255pt" height="284pt"
 viewBox="0.00 0.00 1255.00 284.00" xmlns="http://www.w3.org/2000/svg" xmlns:xlink="http://www.w3.org/1999/xlink">
<g id="graph0" class="graph" transform="scale(1 1) rotate(0) translate(4 280)">
<title>dependencies</title>
<polygon fill="#ffffff" stroke="transparent" points="-4,4 -4,-280 1251,-280 1251,4 -4,4"/>
<text text-anchor="start" x="602.5091" y="-42.4" font-family="sans-serif" font-weight="bold" font-size="14.00" fill="#000000">Legend</text>
<polygon fill="#ffffb3" stroke="transparent" points="389.5,-10 389.5,-30 409.5,-30 409.5,-10 389.5,-10"/>
<text text-anchor="start" x="413.129" y="-15.4" font-family="sans-serif" font-size="14.00" fill="#000000"> &#160;Declarations</text>
<polygon fill="#8dd3c7" stroke="transparent" points="502.5,-10 502.5,-30 522.5,-30 522.5,-10 502.5,-10"/>
<text text-anchor="start" x="526.2251" y="-15.4" font-family="sans-serif" font-size="14.00" fill="#000000"> &#160;Module</text>
<polygon fill="#80b1d3" stroke="transparent" points="588.5,-10 588.5,-30 608.5,-30 608.5,-10 588.5,-10"/>
<text text-anchor="start" x="612.2812" y="-15.4" font-family="sans-serif" font-size="14.00" fill="#000000"> &#160;Bootstrap</text>
<polygon fill="#fdb462" stroke="transparent" points="685.5,-10 685.5,-30 705.5,-30 705.5,-10 685.5,-10"/>
<text text-anchor="start" x="709.1732" y="-15.4" font-family="sans-serif" font-size="14.00" fill="#000000"> &#160;Providers</text>
<polygon fill="#fb8072" stroke="transparent" points="781.5,-10 781.5,-30 801.5,-30 801.5,-10 781.5,-10"/>
<text text-anchor="start" x="805.2258" y="-15.4" font-family="sans-serif" font-size="14.00" fill="#000000"> &#160;Exports</text>
<g id="clust1" class="cluster">
<title>cluster_AppModule</title>
<polygon fill="none" stroke="#000000" stroke-dasharray="1,5" points="8,-70 8,-268 605,-268 605,-70 8,-70"/>
</g>
<g id="clust2" class="cluster">
<title>cluster_AppModule_declarations</title>
<polygon fill="none" stroke="#000000" points="342,-78 342,-130 597,-130 597,-78 342,-78"/>
</g>
<g id="clust5" class="cluster">
<title>cluster_AppModule_imports</title>
<polygon fill="none" stroke="#000000" points="16,-78 16,-130 334,-130 334,-78 16,-78"/>
</g>
<g id="clust7" class="cluster">
<title>cluster_AppModule_bootstrap</title>
<polygon fill="none" stroke="#000000" points="260,-208 260,-260 384,-260 384,-208 260,-208"/>
</g>
<g id="clust9" class="cluster">
<title>cluster_EttModule</title>
<polygon fill="none" stroke="#000000" stroke-dasharray="1,5" points="613,-70 613,-268 949,-268 949,-70 613,-70"/>
</g>
<g id="clust10" class="cluster">
<title>cluster_EttModule_declarations</title>
<polygon fill="none" stroke="#000000" points="621,-78 621,-130 735,-130 735,-78 621,-78"/>
</g>
<g id="clust12" class="cluster">
<title>cluster_EttModule_imports</title>
<polygon fill="none" stroke="#000000" points="743,-78 743,-130 941,-130 941,-78 743,-78"/>
</g>
<g id="clust13" class="cluster">
<title>cluster_EttModule_exports</title>
<polygon fill="none" stroke="#000000" points="702,-208 702,-260 820,-260 820,-208 702,-208"/>
</g>
<g id="clust16" class="cluster">
<title>cluster_TreModule</title>
<polygon fill="none" stroke="#000000" stroke-dasharray="1,5" points="957,-70 957,-268 1093,-268 1093,-70 957,-70"/>
</g>
<g id="clust17" class="cluster">
<title>cluster_TreModule_declarations</title>
<polygon fill="none" stroke="#000000" points="966,-78 966,-130 1082,-130 1082,-78 966,-78"/>
</g>
<g id="clust20" class="cluster">
<title>cluster_TreModule_exports</title>
<polygon fill="none" stroke="#000000" points="965,-208 965,-260 1085,-260 1085,-208 965,-208"/>
</g>
<g id="clust23" class="cluster">
<title>cluster_TvaModule</title>
<polygon fill="none" stroke="#000000" stroke-dasharray="1,5" points="1101,-70 1101,-268 1239,-268 1239,-70 1101,-70"/>
</g>
<g id="clust24" class="cluster">
<title>cluster_TvaModule_declarations</title>
<polygon fill="none" stroke="#000000" points="1109,-78 1109,-130 1229,-130 1229,-78 1109,-78"/>
</g>
<g id="clust27" class="cluster">
<title>cluster_TvaModule_exports</title>
<polygon fill="none" stroke="#000000" points="1109,-208 1109,-260 1231,-260 1231,-208 1109,-208"/>
</g>
<!-- AppComponent -->
<g id="node1" class="node">
<title>AppComponent</title>
<polygon fill="#ffffb3" stroke="#000000" points="588.9399,-122 483.0601,-122 483.0601,-86 588.9399,-86 588.9399,-122"/>
<text text-anchor="middle" x="536" y="-99.8" font-family="Times,serif" font-size="14.00" fill="#000000">AppComponent</text>
</g>
<!-- AppModule -->
<g id="node3" class="node">
<title>AppModule</title>
<polygon fill="#8dd3c7" stroke="#000000" points="363.6571,-187 360.6571,-191 339.6571,-191 336.6571,-187 280.3429,-187 280.3429,-151 363.6571,-151 363.6571,-187"/>
<text text-anchor="middle" x="322" y="-164.8" font-family="Times,serif" font-size="14.00" fill="#000000">AppModule</text>
</g>
<!-- AppComponent&#45;&gt;AppModule -->
<g id="edge1" class="edge">
<title>AppComponent&#45;&gt;AppModule</title>
<path fill="none" stroke="#000000" d="M536,-122.0225C536,-139.3734 536,-163 536,-163 536,-163 373.7694,-163 373.7694,-163"/>
<polygon fill="#000000" stroke="#000000" points="373.7694,-159.5001 363.7694,-163 373.7693,-166.5001 373.7694,-159.5001"/>
</g>
<!-- HomeComponent -->
<g id="node2" class="node">
<title>HomeComponent</title>
<polygon fill="#ffffb3" stroke="#000000" points="465.5451,-122 350.4549,-122 350.4549,-86 465.5451,-86 465.5451,-122"/>
<text text-anchor="middle" x="408" y="-99.8" font-family="Times,serif" font-size="14.00" fill="#000000">HomeComponent</text>
</g>
<!-- HomeComponent&#45;&gt;AppModule -->
<g id="edge2" class="edge">
<title>HomeComponent&#45;&gt;AppModule</title>
<path fill="none" stroke="#000000" d="M357.0281,-122.1061C357.0281,-122.1061 357.0281,-140.991 357.0281,-140.991"/>
<polygon fill="#000000" stroke="#000000" points="353.5281,-140.9909 357.0281,-150.991 360.5281,-140.991 353.5281,-140.9909"/>
</g>
<!-- AppComponent  -->
<g id="node6" class="node">
<title>AppComponent </title>
<polygon fill="#80b1d3" stroke="#000000" points="376.439,-252 267.561,-252 267.561,-216 376.439,-216 376.439,-252"/>
<text text-anchor="middle" x="322" y="-229.8" font-family="Times,serif" font-size="14.00" fill="#000000">AppComponent </text>
</g>
<!-- AppModule&#45;&gt;AppComponent  -->
<g id="edge5" class="edge">
<title>AppModule&#45;&gt;AppComponent </title>
<path fill="none" stroke="#000000" stroke-dasharray="1,5" d="M322,-187.1061C322,-187.1061 322,-205.991 322,-205.991"/>
<polygon fill="#000000" stroke="#000000" points="318.5001,-205.9909 322,-215.991 325.5001,-205.991 318.5001,-205.9909"/>
</g>
<!-- RouterModule.forRoot(args) -->
<g id="node4" class="node">
<title>RouterModule.forRoot(args)</title>
<polygon fill="#8dd3c7" stroke="#000000" points="325.8419,-122 322.8419,-126 301.8419,-126 298.8419,-122 148.1581,-122 148.1581,-86 325.8419,-86 325.8419,-122"/>
<text text-anchor="middle" x="237" y="-99.8" font-family="Times,serif" font-size="14.00" fill="#000000">RouterModule.forRoot(args)</text>
</g>
<!-- RouterModule.forRoot(args)&#45;&gt;AppModule -->
<g id="edge3" class="edge">
<title>RouterModule.forRoot(args)&#45;&gt;AppModule</title>
<path fill="none" stroke="#000000" d="M302.9213,-122.1061C302.9213,-122.1061 302.9213,-140.991 302.9213,-140.991"/>
<polygon fill="#000000" stroke="#000000" points="299.4214,-140.9909 302.9213,-150.991 306.4214,-140.991 299.4214,-140.9909"/>
</g>
<!-- BrowserModule -->
<g id="node5" class="node">
<title>BrowserModule</title>
<polygon fill="#8dd3c7" stroke="#000000" points="130.4734,-122 127.4734,-126 106.4734,-126 103.4734,-122 23.5266,-122 23.5266,-86 130.4734,-86 130.4734,-122"/>
<text text-anchor="middle" x="77" y="-99.8" font-family="Times,serif" font-size="14.00" fill="#000000">BrowserModule</text>
</g>
<!-- BrowserModule&#45;&gt;AppModule -->
<g id="edge4" class="edge">
<title>BrowserModule&#45;&gt;AppModule</title>
<path fill="none" stroke="#000000" d="M77,-122.1061C77,-141.3391 77,-169 77,-169 77,-169 270.1614,-169 270.1614,-169"/>
<polygon fill="#000000" stroke="#000000" points="270.1614,-172.5001 280.1614,-169 270.1613,-165.5001 270.1614,-172.5001"/>
</g>
<!-- EttComponent -->
<g id="node7" class="node">
<title>EttComponent</title>
<polygon fill="#ffffb3" stroke="#000000" points="726.6668,-122 629.3332,-122 629.3332,-86 726.6668,-86 726.6668,-122"/>
<text text-anchor="middle" x="678" y="-99.8" font-family="Times,serif" font-size="14.00" fill="#000000">EttComponent</text>
</g>
<!-- EttModule -->
<g id="node8" class="node">
<title>EttModule</title>
<polygon fill="#8dd3c7" stroke="#000000" points="798.8837,-187 795.8837,-191 774.8837,-191 771.8837,-187 723.1163,-187 723.1163,-151 798.8837,-151 798.8837,-187"/>
<text text-anchor="middle" x="761" y="-164.8" font-family="Times,serif" font-size="14.00" fill="#000000">EttModule</text>
</g>
<!-- EttComponent&#45;&gt;EttModule -->
<g id="edge6" class="edge">
<title>EttComponent&#45;&gt;EttModule</title>
<path fill="none" stroke="#000000" d="M716.7376,-122.2843C716.7376,-143.3211 716.7376,-175 716.7376,-175 716.7376,-175 717.353,-175 717.353,-175"/>
<polygon fill="#000000" stroke="#000000" points="712.8921,-178.5002 722.8921,-175 712.892,-171.5002 712.8921,-178.5002"/>
</g>
<!-- EttComponent  -->
<g id="node10" class="node">
<title>EttComponent </title>
<polygon fill="#fb8072" stroke="#000000" points="811.6663,-252 710.3337,-252 710.3337,-216 811.6663,-216 811.6663,-252"/>
<text text-anchor="middle" x="761" y="-229.8" font-family="Times,serif" font-size="14.00" fill="#000000">EttComponent </text>
</g>
<!-- EttModule&#45;&gt;EttComponent  -->
<g id="edge8" class="edge">
<title>EttModule&#45;&gt;EttComponent </title>
<path fill="none" stroke="#000000" stroke-dasharray="5,2" d="M761,-187.1061C761,-187.1061 761,-205.991 761,-205.991"/>
<polygon fill="#000000" stroke="#000000" points="757.5001,-205.9909 761,-215.991 764.5001,-205.991 757.5001,-205.9909"/>
</g>
<!-- RouterModule.forChild(args) -->
<g id="node9" class="node">
<title>RouterModule.forChild(args)</title>
<polygon fill="#8dd3c7" stroke="#000000" points="932.7323,-122 929.7323,-126 908.7323,-126 905.7323,-122 751.2677,-122 751.2677,-86 932.7323,-86 932.7323,-122"/>
<text text-anchor="middle" x="842" y="-99.8" font-family="Times,serif" font-size="14.00" fill="#000000">RouterModule.forChild(args)</text>
</g>
<!-- RouterModule.forChild(args)&#45;&gt;EttModule -->
<g id="edge7" class="edge">
<title>RouterModule.forChild(args)&#45;&gt;EttModule</title>
<path fill="none" stroke="#000000" d="M775.1628,-122.1061C775.1628,-122.1061 775.1628,-140.991 775.1628,-140.991"/>
<polygon fill="#000000" stroke="#000000" points="771.6629,-140.9909 775.1628,-150.991 778.6629,-140.991 771.6629,-140.9909"/>
</g>
<!-- TreModule -->
<g id="node12" class="node">
<title>TreModule</title>
<polygon fill="#8dd3c7" stroke="#000000" points="1063.4776,-187 1060.4776,-191 1039.4776,-191 1036.4776,-187 984.5224,-187 984.5224,-151 1063.4776,-151 1063.4776,-187"/>
<text text-anchor="middle" x="1024" y="-164.8" font-family="Times,serif" font-size="14.00" fill="#000000">TreModule</text>
</g>
<!-- RouterModule.forChild(args)&#45;&gt;TreModule -->
<g id="edge10" class="edge">
<title>RouterModule.forChild(args)&#45;&gt;TreModule</title>
<path fill="none" stroke="#000000" d="M892.2718,-122.1061C892.2718,-141.3391 892.2718,-169 892.2718,-169 892.2718,-169 974.4772,-169 974.4772,-169"/>
<polygon fill="#000000" stroke="#000000" points="974.4772,-172.5001 984.4772,-169 974.4772,-165.5001 974.4772,-172.5001"/>
</g>
<!-- TvaModule -->
<g id="node15" class="node">
<title>TvaModule</title>
<polygon fill="#8dd3c7" stroke="#000000" points="1209.8176,-187 1206.8176,-191 1185.8176,-191 1182.8176,-187 1128.1824,-187 1128.1824,-151 1209.8176,-151 1209.8176,-187"/>
<text text-anchor="middle" x="1169" y="-164.8" font-family="Times,serif" font-size="14.00" fill="#000000">TvaModule</text>
</g>
<!-- RouterModule.forChild(args)&#45;&gt;TvaModule -->
<g id="edge13" class="edge">
<title>RouterModule.forChild(args)&#45;&gt;TvaModule</title>
<path fill="none" stroke="#000000" d="M851.9274,-122.0449C851.9274,-129.749 851.9274,-137 851.9274,-137 851.9274,-137 1155.4472,-137 1155.4472,-137 1155.4472,-137 1155.4472,-140.7566 1155.4472,-140.7566"/>
<polygon fill="#000000" stroke="#000000" points="1151.9473,-140.7566 1155.4472,-150.7566 1158.9473,-140.7566 1151.9473,-140.7566"/>
</g>
<!-- TreComponent -->
<g id="node11" class="node">
<title>TreComponent</title>
<polygon fill="#ffffb3" stroke="#000000" points="1074.2605,-122 973.7395,-122 973.7395,-86 1074.2605,-86 1074.2605,-122"/>
<text text-anchor="middle" x="1024" y="-99.8" font-family="Times,serif" font-size="14.00" fill="#000000">TreComponent</text>
</g>
<!-- TreComponent&#45;&gt;TreModule -->
<g id="edge9" class="edge">
<title>TreComponent&#45;&gt;TreModule</title>
<path fill="none" stroke="#000000" d="M1024,-122.1061C1024,-122.1061 1024,-140.991 1024,-140.991"/>
<polygon fill="#000000" stroke="#000000" points="1020.5001,-140.9909 1024,-150.991 1027.5001,-140.991 1020.5001,-140.9909"/>
</g>
<!-- TreComponent  -->
<g id="node13" class="node">
<title>TreComponent </title>
<polygon fill="#fb8072" stroke="#000000" points="1077.2605,-252 972.7395,-252 972.7395,-216 1077.2605,-216 1077.2605,-252"/>
<text text-anchor="middle" x="1025" y="-229.8" font-family="Times,serif" font-size="14.00" fill="#000000">TreComponent </text>
</g>
<!-- TreModule&#45;&gt;TreComponent  -->
<g id="edge11" class="edge">
<title>TreModule&#45;&gt;TreComponent </title>
<path fill="none" stroke="#000000" stroke-dasharray="5,2" d="M1024,-187.1061C1024,-187.1061 1024,-205.991 1024,-205.991"/>
<polygon fill="#000000" stroke="#000000" points="1020.5001,-205.9909 1024,-215.991 1027.5001,-205.991 1020.5001,-205.9909"/>
</g>
<!-- TvaComponent -->
<g id="node14" class="node">
<title>TvaComponent</title>
<polygon fill="#ffffb3" stroke="#000000" points="1220.5996,-122 1117.4004,-122 1117.4004,-86 1220.5996,-86 1220.5996,-122"/>
<text text-anchor="middle" x="1169" y="-99.8" font-family="Times,serif" font-size="14.00" fill="#000000">TvaComponent</text>
</g>
<!-- TvaComponent&#45;&gt;TvaModule -->
<g id="edge12" class="edge">
<title>TvaComponent&#45;&gt;TvaModule</title>
<path fill="none" stroke="#000000" d="M1182.5528,-122.1061C1182.5528,-122.1061 1182.5528,-140.991 1182.5528,-140.991"/>
<polygon fill="#000000" stroke="#000000" points="1179.0529,-140.9909 1182.5528,-150.991 1186.0529,-140.991 1179.0529,-140.9909"/>
</g>
<!-- TvaComponent  -->
<g id="node16" class="node">
<title>TvaComponent </title>
<polygon fill="#fb8072" stroke="#000000" points="1223.1003,-252 1116.8997,-252 1116.8997,-216 1223.1003,-216 1223.1003,-252"/>
<text text-anchor="middle" x="1170" y="-229.8" font-family="Times,serif" font-size="14.00" fill="#000000">TvaComponent </text>
</g>
<!-- TvaModule&#45;&gt;TvaComponent  -->
<g id="edge14" class="edge">
<title>TvaModule&#45;&gt;TvaComponent </title>
<path fill="none" stroke="#000000" stroke-dasharray="5,2" d="M1169,-187.1061C1169,-187.1061 1169,-205.991 1169,-205.991"/>
<polygon fill="#000000" stroke="#000000" points="1165.5001,-205.9909 1169,-215.991 1172.5001,-205.991 1165.5001,-205.9909"/>
</g>
</g>
</svg>
