<?xml version="1.0" encoding="UTF-8" standalone="no"?>
<!DOCTYPE svg PUBLIC "-//W3C//DTD SVG 1.1//EN"
 "http://www.w3.org/Graphics/SVG/1.1/DTD/svg11.dtd">
<!-- Generated by graphviz version 2.40.1 (20161225.0304)
 -->
<!-- Title: dependencies Pages: 1 -->
<svg width="727pt" height="284pt"
 viewBox="0.00 0.00 727.00 284.00" xmlns="http://www.w3.org/2000/svg" xmlns:xlink="http://www.w3.org/1999/xlink">
<g id="graph0" class="graph" transform="scale(1 1) rotate(0) translate(4 280)">
<title>dependencies</title>
<polygon fill="#ffffff" stroke="transparent" points="-4,4 -4,-280 723,-280 723,4 -4,4"/>
<text text-anchor="start" x="338.5091" y="-42.4" font-family="sans-serif" font-weight="bold" font-size="14.00" fill="#000000">Legend</text>
<polygon fill="#ffffb3" stroke="transparent" points="125.5,-10 125.5,-30 145.5,-30 145.5,-10 125.5,-10"/>
<text text-anchor="start" x="149.129" y="-15.4" font-family="sans-serif" font-size="14.00" fill="#000000"> &#160;Declarations</text>
<polygon fill="#8dd3c7" stroke="transparent" points="238.5,-10 238.5,-30 258.5,-30 258.5,-10 238.5,-10"/>
<text text-anchor="start" x="262.2251" y="-15.4" font-family="sans-serif" font-size="14.00" fill="#000000"> &#160;Module</text>
<polygon fill="#80b1d3" stroke="transparent" points="324.5,-10 324.5,-30 344.5,-30 344.5,-10 324.5,-10"/>
<text text-anchor="start" x="348.2812" y="-15.4" font-family="sans-serif" font-size="14.00" fill="#000000"> &#160;Bootstrap</text>
<polygon fill="#fdb462" stroke="transparent" points="421.5,-10 421.5,-30 441.5,-30 441.5,-10 421.5,-10"/>
<text text-anchor="start" x="445.1732" y="-15.4" font-family="sans-serif" font-size="14.00" fill="#000000"> &#160;Providers</text>
<polygon fill="#fb8072" stroke="transparent" points="517.5,-10 517.5,-30 537.5,-30 537.5,-10 517.5,-10"/>
<text text-anchor="start" x="541.2258" y="-15.4" font-family="sans-serif" font-size="14.00" fill="#000000"> &#160;Exports</text>
<g id="clust1" class="cluster">
<title>cluster_AppModule</title>
<polygon fill="none" stroke="#000000" stroke-dasharray="1,5" points="8,-70 8,-268 279,-268 279,-70 8,-70"/>
</g>
<g id="clust2" class="cluster">
<title>cluster_AppModule_declarations</title>
<polygon fill="none" stroke="#000000" points="16,-78 16,-130 271,-130 271,-78 16,-78"/>
</g>
<g id="clust7" class="cluster">
<title>cluster_AppModule_bootstrap</title>
<polygon fill="none" stroke="#000000" points="83,-208 83,-260 207,-260 207,-208 83,-208"/>
</g>
<g id="clust9" class="cluster">
<title>cluster_EttModule</title>
<polygon fill="none" stroke="#000000" stroke-dasharray="1,5" points="287,-70 287,-268 421,-268 421,-70 287,-70"/>
</g>
<g id="clust10" class="cluster">
<title>cluster_EttModule_declarations</title>
<polygon fill="none" stroke="#000000" points="297,-78 297,-130 411,-130 411,-78 297,-78"/>
</g>
<g id="clust13" class="cluster">
<title>cluster_EttModule_exports</title>
<polygon fill="none" stroke="#000000" points="295,-208 295,-260 413,-260 413,-208 295,-208"/>
</g>
<g id="clust16" class="cluster">
<title>cluster_TreModule</title>
<polygon fill="none" stroke="#000000" stroke-dasharray="1,5" points="429,-70 429,-268 565,-268 565,-70 429,-70"/>
</g>
<g id="clust17" class="cluster">
<title>cluster_TreModule_declarations</title>
<polygon fill="none" stroke="#000000" points="439,-78 439,-130 555,-130 555,-78 439,-78"/>
</g>
<g id="clust20" class="cluster">
<title>cluster_TreModule_exports</title>
<polygon fill="none" stroke="#000000" points="437,-208 437,-260 557,-260 557,-208 437,-208"/>
</g>
<g id="clust23" class="cluster">
<title>cluster_TvaModule</title>
<polygon fill="none" stroke="#000000" stroke-dasharray="1,5" points="573,-70 573,-268 711,-268 711,-70 573,-70"/>
</g>
<g id="clust24" class="cluster">
<title>cluster_TvaModule_declarations</title>
<polygon fill="none" stroke="#000000" points="582,-78 582,-130 702,-130 702,-78 582,-78"/>
</g>
<g id="clust27" class="cluster">
<title>cluster_TvaModule_exports</title>
<polygon fill="none" stroke="#000000" points="581,-208 581,-260 703,-260 703,-208 581,-208"/>
</g>
<!-- AppComponent -->
<g id="node1" class="node">
<title>AppComponent</title>
<polygon fill="#ffffb3" stroke="#000000" points="262.9399,-122 157.0601,-122 157.0601,-86 262.9399,-86 262.9399,-122"/>
<text text-anchor="middle" x="210" y="-99.8" font-family="Times,serif" font-size="14.00" fill="#000000">AppComponent</text>
</g>
<!-- AppModule -->
<g id="node3" class="node">
<title>AppModule</title>
<polygon fill="#8dd3c7" stroke="#000000" points="186.6571,-187 183.6571,-191 162.6571,-191 159.6571,-187 103.3429,-187 103.3429,-151 186.6571,-151 186.6571,-187"/>
<text text-anchor="middle" x="145" y="-164.8" font-family="Times,serif" font-size="14.00" fill="#000000">AppModule</text>
</g>
<!-- AppComponent&#45;&gt;AppModule -->
<g id="edge1" class="edge">
<title>AppComponent&#45;&gt;AppModule</title>
<path fill="none" stroke="#000000" d="M172.0544,-122.1061C172.0544,-122.1061 172.0544,-140.991 172.0544,-140.991"/>
<polygon fill="#000000" stroke="#000000" points="168.5544,-140.9909 172.0544,-150.991 175.5544,-140.991 168.5544,-140.9909"/>
</g>
<!-- HomeComponent -->
<g id="node2" class="node">
<title>HomeComponent</title>
<polygon fill="#ffffb3" stroke="#000000" points="139.5451,-122 24.4549,-122 24.4549,-86 139.5451,-86 139.5451,-122"/>
<text text-anchor="middle" x="82" y="-99.8" font-family="Times,serif" font-size="14.00" fill="#000000">HomeComponent</text>
</g>
<!-- HomeComponent&#45;&gt;AppModule -->
<g id="edge2" class="edge">
<title>HomeComponent&#45;&gt;AppModule</title>
<path fill="none" stroke="#000000" d="M121.472,-122.1061C121.472,-122.1061 121.472,-140.991 121.472,-140.991"/>
<polygon fill="#000000" stroke="#000000" points="117.972,-140.9909 121.472,-150.991 124.972,-140.991 117.972,-140.9909"/>
</g>
<!-- AppComponent  -->
<g id="node4" class="node">
<title>AppComponent </title>
<polygon fill="#80b1d3" stroke="#000000" points="199.439,-252 90.561,-252 90.561,-216 199.439,-216 199.439,-252"/>
<text text-anchor="middle" x="145" y="-229.8" font-family="Times,serif" font-size="14.00" fill="#000000">AppComponent </text>
</g>
<!-- AppModule&#45;&gt;AppComponent  -->
<g id="edge3" class="edge">
<title>AppModule&#45;&gt;AppComponent </title>
<path fill="none" stroke="#000000" stroke-dasharray="1,5" d="M145,-187.1061C145,-187.1061 145,-205.991 145,-205.991"/>
<polygon fill="#000000" stroke="#000000" points="141.5001,-205.9909 145,-215.991 148.5001,-205.991 141.5001,-205.9909"/>
</g>
<!-- EttComponent -->
<g id="node5" class="node">
<title>EttComponent</title>
<polygon fill="#ffffb3" stroke="#000000" points="402.6668,-122 305.3332,-122 305.3332,-86 402.6668,-86 402.6668,-122"/>
<text text-anchor="middle" x="354" y="-99.8" font-family="Times,serif" font-size="14.00" fill="#000000">EttComponent</text>
</g>
<!-- EttModule -->
<g id="node6" class="node">
<title>EttModule</title>
<polygon fill="#8dd3c7" stroke="#000000" points="391.8837,-187 388.8837,-191 367.8837,-191 364.8837,-187 316.1163,-187 316.1163,-151 391.8837,-151 391.8837,-187"/>
<text text-anchor="middle" x="354" y="-164.8" font-family="Times,serif" font-size="14.00" fill="#000000">EttModule</text>
</g>
<!-- EttComponent&#45;&gt;EttModule -->
<g id="edge4" class="edge">
<title>EttComponent&#45;&gt;EttModule</title>
<path fill="none" stroke="#000000" d="M354,-122.1061C354,-122.1061 354,-140.991 354,-140.991"/>
<polygon fill="#000000" stroke="#000000" points="350.5001,-140.9909 354,-150.991 357.5001,-140.991 350.5001,-140.9909"/>
</g>
<!-- EttComponent  -->
<g id="node7" class="node">
<title>EttComponent </title>
<polygon fill="#fb8072" stroke="#000000" points="404.6663,-252 303.3337,-252 303.3337,-216 404.6663,-216 404.6663,-252"/>
<text text-anchor="middle" x="354" y="-229.8" font-family="Times,serif" font-size="14.00" fill="#000000">EttComponent </text>
</g>
<!-- EttModule&#45;&gt;EttComponent  -->
<g id="edge5" class="edge">
<title>EttModule&#45;&gt;EttComponent </title>
<path fill="none" stroke="#000000" stroke-dasharray="5,2" d="M354,-187.1061C354,-187.1061 354,-205.991 354,-205.991"/>
<polygon fill="#000000" stroke="#000000" points="350.5001,-205.9909 354,-215.991 357.5001,-205.991 350.5001,-205.9909"/>
</g>
<!-- TreComponent -->
<g id="node8" class="node">
<title>TreComponent</title>
<polygon fill="#ffffb3" stroke="#000000" points="547.2605,-122 446.7395,-122 446.7395,-86 547.2605,-86 547.2605,-122"/>
<text text-anchor="middle" x="497" y="-99.8" font-family="Times,serif" font-size="14.00" fill="#000000">TreComponent</text>
</g>
<!-- TreModule -->
<g id="node9" class="node">
<title>TreModule</title>
<polygon fill="#8dd3c7" stroke="#000000" points="536.4776,-187 533.4776,-191 512.4776,-191 509.4776,-187 457.5224,-187 457.5224,-151 536.4776,-151 536.4776,-187"/>
<text text-anchor="middle" x="497" y="-164.8" font-family="Times,serif" font-size="14.00" fill="#000000">TreModule</text>
</g>
<!-- TreComponent&#45;&gt;TreModule -->
<g id="edge6" class="edge">
<title>TreComponent&#45;&gt;TreModule</title>
<path fill="none" stroke="#000000" d="M497,-122.1061C497,-122.1061 497,-140.991 497,-140.991"/>
<polygon fill="#000000" stroke="#000000" points="493.5001,-140.9909 497,-150.991 500.5001,-140.991 493.5001,-140.9909"/>
</g>
<!-- TreComponent  -->
<g id="node10" class="node">
<title>TreComponent </title>
<polygon fill="#fb8072" stroke="#000000" points="549.2605,-252 444.7395,-252 444.7395,-216 549.2605,-216 549.2605,-252"/>
<text text-anchor="middle" x="497" y="-229.8" font-family="Times,serif" font-size="14.00" fill="#000000">TreComponent </text>
</g>
<!-- TreModule&#45;&gt;TreComponent  -->
<g id="edge7" class="edge">
<title>TreModule&#45;&gt;TreComponent </title>
<path fill="none" stroke="#000000" stroke-dasharray="5,2" d="M497,-187.1061C497,-187.1061 497,-205.991 497,-205.991"/>
<polygon fill="#000000" stroke="#000000" points="493.5001,-205.9909 497,-215.991 500.5001,-205.991 493.5001,-205.9909"/>
</g>
<!-- TvaComponent -->
<g id="node11" class="node">
<title>TvaComponent</title>
<polygon fill="#ffffb3" stroke="#000000" points="693.5996,-122 590.4004,-122 590.4004,-86 693.5996,-86 693.5996,-122"/>
<text text-anchor="middle" x="642" y="-99.8" font-family="Times,serif" font-size="14.00" fill="#000000">TvaComponent</text>
</g>
<!-- TvaModule -->
<g id="node12" class="node">
<title>TvaModule</title>
<polygon fill="#8dd3c7" stroke="#000000" points="682.8176,-187 679.8176,-191 658.8176,-191 655.8176,-187 601.1824,-187 601.1824,-151 682.8176,-151 682.8176,-187"/>
<text text-anchor="middle" x="642" y="-164.8" font-family="Times,serif" font-size="14.00" fill="#000000">TvaModule</text>
</g>
<!-- TvaComponent&#45;&gt;TvaModule -->
<g id="edge8" class="edge">
<title>TvaComponent&#45;&gt;TvaModule</title>
<path fill="none" stroke="#000000" d="M642,-122.1061C642,-122.1061 642,-140.991 642,-140.991"/>
<polygon fill="#000000" stroke="#000000" points="638.5001,-140.9909 642,-150.991 645.5001,-140.991 638.5001,-140.9909"/>
</g>
<!-- TvaComponent  -->
<g id="node13" class="node">
<title>TvaComponent </title>
<polygon fill="#fb8072" stroke="#000000" points="695.1003,-252 588.8997,-252 588.8997,-216 695.1003,-216 695.1003,-252"/>
<text text-anchor="middle" x="642" y="-229.8" font-family="Times,serif" font-size="14.00" fill="#000000">TvaComponent </text>
</g>
<!-- TvaModule&#45;&gt;TvaComponent  -->
<g id="edge9" class="edge">
<title>TvaModule&#45;&gt;TvaComponent </title>
<path fill="none" stroke="#000000" stroke-dasharray="5,2" d="M642,-187.1061C642,-187.1061 642,-205.991 642,-205.991"/>
<polygon fill="#000000" stroke="#000000" points="638.5001,-205.9909 642,-215.991 645.5001,-205.991 638.5001,-205.9909"/>
</g>
</g>
</svg>
